<?xml version="1.0" standalone="no"?>
<!DOCTYPE svg PUBLIC "-//W3C//DTD SVG 20010904//EN"
 "http://www.w3.org/TR/2001/REC-SVG-20010904/DTD/svg10.dtd">
<svg version="1.0" xmlns="http://www.w3.org/2000/svg"
 width="2048.000000pt" height="2048.000000pt" viewBox="0 0 2048.000000 2048.000000"
 preserveAspectRatio="xMidYMid meet">

<g transform="translate(0.000000,2048.000000) scale(0.100000,-0.100000)"
fill="#000000" stroke="none">
<path d="M7575 13650 c-3 -5 -19 -10 -34 -10 -17 0 -38 -11 -56 -30 l-28 -29
5 -477 6 -476 38 -39 38 -39 88 0 c58 0 96 5 111 14 15 9 72 16 176 20 85 4
162 11 172 17 10 5 44 9 76 9 32 0 77 5 101 10 53 13 261 32 359 34 61 1 75 5
98 26 38 35 71 108 56 123 -16 16 -16 658 1 675 10 10 10 17 0 32 -6 11 -12
26 -12 35 0 29 -40 79 -76 97 -35 17 -77 18 -575 18 -348 0 -540 -4 -544 -10z"/>
<path d="M9563 13582 c-9 -6 -13 -113 -13 -435 -1 -235 2 -431 5 -437 4 -7
252 -10 715 -10 643 0 708 -1 714 -16 4 -9 6 -456 6 -992 0 -920 -1 -977 -17
-993 -17 -16 -172 -58 -348 -94 -44 -10 -98 -23 -120 -30 -22 -7 -58 -16 -80
-20 -22 -3 -69 -12 -105 -20 -36 -8 -139 -28 -230 -45 -91 -17 -185 -35 -210
-41 -25 -5 -77 -14 -115 -19 -108 -13 -224 -30 -285 -41 -163 -30 -402 -57
-430 -49 l-25 6 -3 847 -2 847 -23 5 c-12 3 -305 4 -652 3 l-630 -3 -5 -870
c-3 -486 -9 -876 -14 -884 -7 -11 -30 -13 -115 -7 -135 8 -395 41 -486 62 -38
9 -88 20 -110 24 -22 4 -56 13 -75 20 -158 55 -207 74 -220 85 -8 7 -26 15
-40 18 -14 4 -59 28 -100 55 -122 80 -219 193 -240 284 -14 56 -9 220 7 240 6
7 16 30 22 50 17 51 121 207 199 298 105 122 317 306 496 431 42 30 93 65 112
79 20 13 31 26 26 28 -12 4 -115 -51 -255 -137 -59 -36 -132 -79 -161 -96 -52
-30 -224 -151 -281 -199 -16 -14 -48 -40 -71 -58 -193 -154 -390 -358 -467
-482 -17 -29 -38 -61 -44 -72 -70 -108 -104 -214 -110 -339 -4 -83 -1 -111 16
-164 46 -141 119 -234 258 -328 58 -40 187 -105 233 -118 14 -4 50 -19 80 -33
30 -14 59 -24 63 -23 5 1 34 -5 65 -13 118 -30 190 -45 296 -61 330 -49 328
-49 914 -50 309 -1 562 1 562 5 0 8 215 24 320 25 36 0 70 3 75 6 6 4 62 12
125 19 63 6 162 18 219 27 57 8 116 12 132 9 15 -3 31 -1 34 3 2 5 44 14 92
20 100 13 235 35 338 56 39 7 106 19 150 25 44 7 98 16 120 20 22 5 92 18 155
30 63 11 142 28 175 37 33 9 92 22 130 29 154 28 502 111 570 135 17 6 50 15
75 19 95 18 594 177 900 287 218 80 464 177 595 237 28 13 75 33 105 45 220
89 737 346 950 474 187 112 238 143 297 184 34 24 64 43 67 43 5 0 164 119
268 201 262 206 508 518 540 687 21 109 21 195 -2 278 -53 197 -174 327 -412
446 -131 65 -151 46 -28 -27 113 -66 181 -125 227 -193 124 -186 42 -451 -220
-713 -80 -80 -230 -209 -243 -209 -4 0 -22 -13 -39 -29 -29 -28 -243 -173
-296 -202 -39 -21 -117 -67 -176 -105 -29 -19 -56 -34 -60 -34 -5 0 -21 -7
-38 -16 -16 -9 -75 -38 -130 -66 -55 -27 -107 -54 -115 -59 -8 -5 -26 -14 -40
-20 -14 -5 -43 -18 -65 -29 -22 -10 -80 -37 -128 -59 -49 -23 -92 -41 -97 -41
-5 0 -51 -20 -102 -44 -51 -24 -138 -60 -193 -81 -55 -20 -119 -46 -143 -56
-52 -23 -78 -24 -86 -3 -11 28 -7 1542 4 1549 6 3 322 6 703 6 380 -1 698 3
705 7 9 7 12 101 10 437 l-3 429 -25 7 c-34 10 -4132 10 -4147 1z"/>
<path d="M8470 12495 c-30 -10 -89 -15 -176 -15 -109 0 -134 -3 -145 -16 -11
-13 -27 -15 -80 -12 -47 4 -76 1 -100 -10 -21 -10 -83 -18 -159 -23 -135 -8
-200 -17 -200 -28 0 -12 23 -31 37 -31 7 0 32 -13 55 -30 22 -16 49 -30 59
-30 10 0 27 -13 39 -30 15 -21 30 -30 49 -30 32 0 127 -32 144 -49 7 -7 63
-11 168 -11 127 0 159 3 169 15 7 8 27 15 44 15 17 0 66 7 109 15 47 9 136 15
222 15 114 0 145 3 155 15 8 10 30 15 64 15 28 0 80 6 116 15 36 8 91 20 122
26 82 17 89 24 53 54 -16 13 -37 24 -46 25 -9 0 -22 6 -28 14 -6 8 -31 17 -56
20 -24 4 -59 17 -77 29 -44 30 -140 53 -205 49 -89 -5 -206 -4 -248 2 -24 3
-58 0 -85 -9z"/>
<path d="M12230 10603 c-142 -64 -337 -138 -615 -233 -77 -27 -153 -53 -170
-59 -16 -6 -75 -25 -130 -42 -55 -17 -116 -37 -135 -44 -19 -7 -57 -18 -85
-24 -27 -7 -61 -20 -75 -31 l-25 -19 0 -602 c0 -444 3 -606 12 -618 10 -14 76
-16 648 -16 554 0 637 2 645 15 6 9 9 334 7 850 -2 827 -2 835 -22 837 -11 1
-36 -5 -55 -14z"/>
<path d="M8880 9748 c-30 -5 -74 -7 -98 -5 -23 3 -44 1 -47 -3 -10 -17 -323
-48 -610 -61 -104 -5 -239 -12 -300 -16 l-110 -8 0 -365 0 -365 70 -8 c39 -4
328 -7 643 -5 496 3 574 5 582 18 10 16 14 789 4 815 -7 17 -48 18 -134 3z"/>
<path d="M7115 8207 c-134 -43 -142 -47 -176 -100 -45 -70 -68 -140 -69 -210
0 -56 -1 -58 -30 -63 -16 -4 -30 -10 -30 -15 0 -13 -34 -11 -48 3 -23 23 -32
-12 -32 -129 0 -62 1 -113 3 -113 1 -1 27 -3 57 -6 30 -3 59 -9 64 -14 4 -4 9
-170 10 -368 1 -278 4 -362 14 -375 11 -13 38 -15 175 -12 89 1 165 3 170 4 4
0 7 165 7 364 0 428 -9 397 113 397 64 0 78 3 86 19 11 20 17 218 7 228 -3 3
-45 6 -93 6 -48 -1 -94 4 -101 10 -14 11 -7 70 13 103 15 23 82 45 133 42 20
0 38 5 43 13 15 24 11 175 -5 189 -39 31 -241 49 -311 27z"/>
<path d="M14612 7503 l3 -698 165 0 c91 0 171 2 178 4 9 2 12 75 12 317 0 289
2 318 19 352 24 47 46 66 95 82 77 25 152 -1 189 -65 8 -14 14 -128 17 -354
l5 -334 175 0 174 0 9 34 c15 55 0 672 -18 747 -26 107 -66 166 -137 203 -21
11 -38 23 -38 27 0 7 -92 15 -165 14 -98 -2 -135 -5 -135 -12 0 -4 -19 -15
-42 -25 -23 -9 -55 -27 -71 -41 -16 -14 -39 -24 -51 -22 -20 3 -21 9 -26 233
-3 127 -7 231 -8 233 -1 1 -81 2 -177 2 l-175 0 2 -697z"/>
<path d="M4826 8124 c-3 -9 -6 -307 -6 -664 0 -609 1 -649 18 -654 24 -8 366
-1 380 8 9 5 12 175 12 651 0 354 -3 650 -6 659 -5 14 -32 16 -199 16 -167 0
-194 -2 -199 -16z"/>
<path d="M9428 8129 c-16 -9 -18 -28 -18 -169 l0 -160 209 0 c141 0 212 -4
217 -11 3 -6 7 -227 8 -491 1 -462 2 -480 20 -494 30 -22 358 -20 380 2 14 14
16 71 16 485 0 305 4 477 10 490 10 18 23 19 206 19 221 0 239 4 230 53 -3 18
-6 84 -7 147 -1 63 -6 121 -11 128 -13 16 -1233 17 -1260 1z"/>
<path d="M7998 7835 c-3 -4 -34 -8 -70 -10 -68 -4 -82 -8 -194 -61 -40 -19
-77 -34 -83 -34 -6 0 -11 -4 -11 -9 0 -5 -16 -29 -37 -53 -43 -51 -83 -137
-107 -229 -26 -101 -12 -265 33 -374 23 -57 101 -147 161 -186 27 -18 50 -36
50 -40 0 -7 6 -9 140 -34 47 -9 87 -21 88 -26 5 -12 172 -12 172 0 0 8 97 31
198 48 17 3 32 9 32 14 0 4 19 19 43 33 75 45 160 161 181 251 4 16 12 35 18
42 10 13 16 252 6 268 -3 6 -20 46 -38 91 -17 45 -52 107 -77 139 -39 49 -58
63 -139 102 -52 24 -94 48 -94 52 0 4 -53 8 -117 9 -64 1 -124 4 -133 7 -9 3
-19 3 -22 0z m168 -284 c72 -51 77 -66 78 -236 1 -150 1 -152 -27 -194 -43
-65 -77 -81 -174 -81 -72 0 -85 3 -111 25 -16 13 -40 48 -52 77 -21 49 -22 62
-17 192 6 130 8 141 33 178 38 55 66 67 155 68 68 0 80 -3 115 -29z"/>
<path d="M11218 7834 c-3 -3 -40 -5 -82 -5 -42 0 -76 -4 -76 -8 0 -12 -48 -31
-63 -25 -7 2 -22 -4 -32 -16 -10 -11 -22 -20 -27 -20 -16 0 -103 -69 -129
-102 -63 -82 -87 -154 -97 -303 -10 -135 -1 -202 41 -298 31 -68 94 -146 148
-181 71 -47 198 -86 282 -86 31 0 57 -4 57 -10 0 -5 23 -10 50 -10 28 0 50 4
50 8 0 5 36 14 80 21 95 14 165 44 240 100 71 54 93 83 132 177 32 78 33 82
33 234 0 168 -8 204 -67 301 -41 67 -181 179 -226 179 -9 0 -26 6 -37 13 -11
8 -69 19 -130 25 -125 14 -139 14 -147 6z m100 -254 c61 -14 119 -69 133 -126
4 -22 9 -91 9 -154 0 -100 -3 -122 -24 -166 -29 -62 -70 -90 -149 -99 -50 -6
-64 -4 -110 19 -42 20 -57 34 -75 71 -19 40 -22 61 -22 186 0 128 2 144 24
187 25 50 67 77 131 85 17 2 31 5 32 6 1 0 24 -4 51 -9z"/>
<path d="M13785 7830 c-33 -4 -70 -5 -82 -3 -22 5 -159 -55 -232 -101 -46 -29
-125 -145 -152 -224 -26 -75 -27 -298 -2 -375 31 -95 91 -183 170 -247 41 -33
132 -66 221 -80 39 -7 72 -16 72 -21 0 -5 36 -9 80 -9 44 0 80 4 80 9 0 5 30
13 68 16 127 14 248 75 327 167 43 52 82 164 76 226 -1 9 -40 12 -161 12
l-160 0 -11 -27 c-32 -82 -40 -93 -86 -120 -43 -25 -56 -28 -132 -26 -96 2
-114 11 -169 83 l-33 43 3 162 c3 160 3 162 32 199 47 63 74 73 175 71 114 -4
161 -29 181 -100 7 -25 21 -50 31 -55 20 -11 196 -13 278 -3 l53 6 -4 51 c-5
58 -44 142 -93 201 -32 39 -131 96 -187 109 -15 3 -33 12 -40 19 -8 7 -42 13
-84 13 -39 1 -91 4 -115 6 -24 3 -71 2 -104 -2z"/>
<path d="M5527 7823 c-4 -3 -7 -230 -7 -503 0 -391 3 -500 13 -508 7 -6 33 -9
57 -7 25 2 100 4 167 4 l122 1 3 324 3 324 30 43 c25 36 40 46 89 61 l59 18
53 -25 c85 -40 84 -35 84 -402 0 -175 4 -324 9 -332 8 -12 43 -15 173 -16 90
-1 169 3 176 8 9 7 12 90 12 351 0 314 -2 349 -21 427 -14 57 -31 97 -52 124
-17 22 -35 41 -38 43 -4 2 -27 17 -51 35 l-43 32 -145 2 c-79 1 -147 -1 -150
-6 -3 -5 -25 -19 -50 -31 -49 -25 -120 -77 -133 -97 -12 -19 -45 -16 -57 6 -5
11 -10 45 -10 75 l0 56 -143 0 c-79 0 -147 -3 -150 -7z"/>
<path d="M12027 7823 c-10 -10 -8 -731 2 -737 4 -3 11 -25 15 -48 9 -58 63
-154 105 -189 20 -16 62 -37 94 -46 31 -8 57 -20 57 -24 0 -14 38 -11 43 4 4
10 6 10 6 0 1 -15 81 -19 81 -5 0 5 26 15 57 22 67 14 155 60 198 101 50 47
85 34 85 -32 0 -65 -4 -64 153 -64 l142 0 3 513 2 512 -180 0 -180 0 0 -331 0
-332 -27 -42 c-36 -58 -73 -78 -144 -79 -71 -1 -107 22 -131 85 -15 38 -17 88
-17 372 l-1 327 -178 0 c-98 0 -182 -3 -185 -7z"/>
</g>
</svg>
